<mxfile host="Electron" agent="Mozilla/5.0 (Windows NT 10.0; Win64; x64) AppleWebKit/537.36 (KHTML, like Gecko) draw.io/28.2.5 Chrome/138.0.7204.251 Electron/37.6.1 Safari/537.36" version="28.2.5">
  <diagram name="Page-1" id="96mhJZVwXlOXhIMHVOoC">
    <mxGraphModel dx="1426" dy="841" grid="1" gridSize="10" guides="1" tooltips="1" connect="1" arrows="1" fold="1" page="1" pageScale="1" pageWidth="850" pageHeight="1100" math="0" shadow="0">
      <root>
        <mxCell id="0" />
        <mxCell id="1" parent="0" />
        <mxCell id="pZPTQWNnfUyGxPel9Bpb-1" value="" style="rounded=0;whiteSpace=wrap;html=1;fillColor=none;dashed=1;strokeColor=light-dark(#000000, #979a9b);" vertex="1" parent="1">
          <mxGeometry x="73.81" y="100" width="122.38" height="620" as="geometry" />
        </mxCell>
        <mxCell id="pZPTQWNnfUyGxPel9Bpb-2" value="&lt;font style=&quot;font-size: 24px;&quot;&gt;Sources&lt;/font&gt;" style="rounded=0;whiteSpace=wrap;html=1;strokeColor=none;" vertex="1" parent="1">
          <mxGeometry x="83.82" y="70" width="120" height="40" as="geometry" />
        </mxCell>
        <mxCell id="pZPTQWNnfUyGxPel9Bpb-6" value="" style="rounded=0;whiteSpace=wrap;html=1;fillColor=none;dashed=1;strokeColor=light-dark(#000000,#979A9B);" vertex="1" parent="1">
          <mxGeometry x="360" y="80" width="600" height="640" as="geometry" />
        </mxCell>
        <mxCell id="pZPTQWNnfUyGxPel9Bpb-7" value="&lt;font style=&quot;font-size: 24px;&quot;&gt;Data Warehouse&lt;/font&gt;" style="rounded=0;whiteSpace=wrap;html=1;strokeColor=none;" vertex="1" parent="1">
          <mxGeometry x="565" y="90" width="190" height="40" as="geometry" />
        </mxCell>
        <mxCell id="pZPTQWNnfUyGxPel9Bpb-8" value="" style="rounded=0;whiteSpace=wrap;html=1;fillColor=none;dashed=1;strokeColor=light-dark(#000000, #979a9b);" vertex="1" parent="1">
          <mxGeometry x="1160" y="90" width="120" height="630" as="geometry" />
        </mxCell>
        <mxCell id="pZPTQWNnfUyGxPel9Bpb-9" value="&lt;font style=&quot;font-size: 24px;&quot;&gt;Consume&lt;/font&gt;" style="rounded=0;whiteSpace=wrap;html=1;strokeColor=none;" vertex="1" parent="1">
          <mxGeometry x="1160" y="70" width="120" height="40" as="geometry" />
        </mxCell>
        <mxCell id="pZPTQWNnfUyGxPel9Bpb-10" value="&lt;font style=&quot;color: rgb(0, 0, 0); font-size: 20px;&quot;&gt;Gold&amp;nbsp;Layer&lt;/font&gt;" style="rounded=0;whiteSpace=wrap;html=1;fillColor=#ffcd28;strokeColor=#d79b00;gradientColor=#ffa500;" vertex="1" parent="1">
          <mxGeometry x="790" y="130" width="130" height="30" as="geometry" />
        </mxCell>
        <mxCell id="pZPTQWNnfUyGxPel9Bpb-11" value="" style="rounded=0;whiteSpace=wrap;html=1;fillColor=none;fontColor=#ffffff;strokeColor=light-dark(#6D1F00, #86513c);" vertex="1" parent="1">
          <mxGeometry x="780" y="160" width="140" height="520" as="geometry" />
        </mxCell>
        <mxCell id="pZPTQWNnfUyGxPel9Bpb-12" value="&lt;font style=&quot;color: rgb(0, 0, 0); font-size: 20px;&quot;&gt;Silver Layer&lt;/font&gt;" style="rounded=0;whiteSpace=wrap;html=1;fillColor=light-dark(#AAAAAA,#B0C8E4);fontColor=#ffffff;strokeColor=#666666;gradientColor=#B3B3B3;" vertex="1" parent="1">
          <mxGeometry x="600" y="130" width="130" height="30" as="geometry" />
        </mxCell>
        <mxCell id="pZPTQWNnfUyGxPel9Bpb-13" value="" style="rounded=0;whiteSpace=wrap;html=1;fillColor=none;fontColor=#ffffff;strokeColor=#314354;" vertex="1" parent="1">
          <mxGeometry x="590" y="160" width="140" height="520" as="geometry" />
        </mxCell>
        <mxCell id="pZPTQWNnfUyGxPel9Bpb-14" value="&lt;font style=&quot;color: rgb(0, 0, 0); font-size: 20px;&quot;&gt;Bronze Layer&lt;/font&gt;" style="rounded=0;whiteSpace=wrap;html=1;fillColor=#ffcc99;strokeColor=#36393d;" vertex="1" parent="1">
          <mxGeometry x="385" y="130" width="130" height="30" as="geometry" />
        </mxCell>
        <mxCell id="pZPTQWNnfUyGxPel9Bpb-15" value="" style="rounded=0;whiteSpace=wrap;html=1;fillColor=none;strokeColor=#9A833E;" vertex="1" parent="1">
          <mxGeometry x="380" y="160" width="140" height="520" as="geometry" />
        </mxCell>
        <mxCell id="pZPTQWNnfUyGxPel9Bpb-20" value="" style="image;aspect=fixed;html=1;points=[];align=center;fontSize=12;image=img/lib/azure2/general/Folder_Blank.svg;" vertex="1" parent="1">
          <mxGeometry x="113.82000000000001" y="170" width="34.36" height="27.88" as="geometry" />
        </mxCell>
        <mxCell id="pZPTQWNnfUyGxPel9Bpb-21" value="" style="image;aspect=fixed;html=1;points=[];align=center;fontSize=12;image=img/lib/azure2/general/Files.svg;" vertex="1" parent="1">
          <mxGeometry x="132.85" y="190" width="21.95" height="24" as="geometry" />
        </mxCell>
        <mxCell id="pZPTQWNnfUyGxPel9Bpb-23" value="" style="image;aspect=fixed;html=1;points=[];align=center;fontSize=12;image=img/lib/azure2/general/Folder_Blank.svg;" vertex="1" parent="1">
          <mxGeometry x="113.82000000000001" y="320" width="34.36" height="27.88" as="geometry" />
        </mxCell>
        <mxCell id="pZPTQWNnfUyGxPel9Bpb-24" value="" style="image;aspect=fixed;html=1;points=[];align=center;fontSize=12;image=img/lib/azure2/general/Files.svg;" vertex="1" parent="1">
          <mxGeometry x="132.85" y="330" width="21.95" height="24" as="geometry" />
        </mxCell>
        <mxCell id="pZPTQWNnfUyGxPel9Bpb-26" value="CRM" style="rounded=0;whiteSpace=wrap;html=1;strokeColor=none;" vertex="1" parent="1">
          <mxGeometry x="101" y="220" width="60" height="30" as="geometry" />
        </mxCell>
        <mxCell id="pZPTQWNnfUyGxPel9Bpb-27" value="ERP" style="rounded=0;whiteSpace=wrap;html=1;strokeColor=none;" vertex="1" parent="1">
          <mxGeometry x="105.00000000000001" y="354" width="60" height="30" as="geometry" />
        </mxCell>
        <mxCell id="pZPTQWNnfUyGxPel9Bpb-30" value="&lt;font style=&quot;font-size: 11px;&quot;&gt;&lt;b&gt;Object Type&lt;/b&gt;: CSV Files&lt;/font&gt;&lt;div&gt;&lt;font style=&quot;font-size: 11px;&quot;&gt;&lt;br&gt;&lt;/font&gt;&lt;/div&gt;&lt;div&gt;&lt;font style=&quot;font-size: 11px;&quot;&gt;I&lt;b&gt;nterface&lt;/b&gt;: Files in Folder&lt;/font&gt;&lt;/div&gt;" style="text;html=1;align=center;verticalAlign=middle;whiteSpace=wrap;rounded=0;" vertex="1" parent="1">
          <mxGeometry x="70" y="460" width="130" height="60" as="geometry" />
        </mxCell>
        <mxCell id="pZPTQWNnfUyGxPel9Bpb-35" value="" style="endArrow=none;html=1;rounded=0;" edge="1" parent="1">
          <mxGeometry width="50" height="50" relative="1" as="geometry">
            <mxPoint x="70" y="410" as="sourcePoint" />
            <mxPoint x="200" y="410" as="targetPoint" />
          </mxGeometry>
        </mxCell>
        <mxCell id="pZPTQWNnfUyGxPel9Bpb-36" value="" style="html=1;verticalLabelPosition=bottom;align=center;labelBackgroundColor=#ffffff;verticalAlign=top;strokeWidth=2;strokeColor=#d79b00;shadow=0;dashed=0;shape=mxgraph.ios7.icons.data;fillColor=#ffcd28;gradientColor=#ffa500;" vertex="1" parent="1">
          <mxGeometry x="827.5" y="267.88" width="45" height="52.12" as="geometry" />
        </mxCell>
        <mxCell id="pZPTQWNnfUyGxPel9Bpb-37" value="" style="html=1;verticalLabelPosition=bottom;align=center;labelBackgroundColor=#ffffff;verticalAlign=top;strokeWidth=2;shadow=0;dashed=0;shape=mxgraph.ios7.icons.data;fillColor=#AAAAAA;gradientColor=#B3B3B3;strokeColor=#666666;" vertex="1" parent="1">
          <mxGeometry x="650" y="260" width="45" height="52.12" as="geometry" />
        </mxCell>
        <mxCell id="pZPTQWNnfUyGxPel9Bpb-38" value="" style="html=1;verticalLabelPosition=bottom;align=center;labelBackgroundColor=#ffffff;verticalAlign=top;strokeWidth=2;strokeColor=#36393d;shadow=0;dashed=0;shape=mxgraph.ios7.icons.data;fillColor=#ffcc99;" vertex="1" parent="1">
          <mxGeometry x="427.5" y="260" width="45" height="52.12" as="geometry" />
        </mxCell>
        <mxCell id="pZPTQWNnfUyGxPel9Bpb-41" value="" style="shape=flexArrow;endArrow=classic;html=1;rounded=0;width=23;endSize=6.06;fillColor=#dae8fc;gradientColor=#7ea6e0;strokeColor=#6c8ebf;" edge="1" parent="1">
          <mxGeometry width="50" height="50" relative="1" as="geometry">
            <mxPoint x="199" y="300" as="sourcePoint" />
            <mxPoint x="390" y="298" as="targetPoint" />
          </mxGeometry>
        </mxCell>
        <mxCell id="pZPTQWNnfUyGxPel9Bpb-42" value="" style="shape=flexArrow;endArrow=classic;html=1;rounded=0;width=19;endSize=8.33;fillColor=#dae8fc;gradientColor=#7ea6e0;strokeColor=#6c8ebf;" edge="1" parent="1">
          <mxGeometry width="50" height="50" relative="1" as="geometry">
            <mxPoint x="520" y="300" as="sourcePoint" />
            <mxPoint x="617" y="300" as="targetPoint" />
          </mxGeometry>
        </mxCell>
        <mxCell id="pZPTQWNnfUyGxPel9Bpb-43" value="" style="shape=flexArrow;endArrow=classic;html=1;rounded=0;width=21;endSize=8;fillColor=#dae8fc;gradientColor=#7ea6e0;strokeColor=#6c8ebf;" edge="1" parent="1">
          <mxGeometry width="50" height="50" relative="1" as="geometry">
            <mxPoint x="720" y="300" as="sourcePoint" />
            <mxPoint x="800" y="300" as="targetPoint" />
          </mxGeometry>
        </mxCell>
        <mxCell id="pZPTQWNnfUyGxPel9Bpb-45" value="" style="shape=flexArrow;endArrow=classic;html=1;rounded=0;width=23;endSize=6.06;fillColor=#dae8fc;gradientColor=#7ea6e0;strokeColor=#6c8ebf;exitX=0.993;exitY=0.281;exitDx=0;exitDy=0;exitPerimeter=0;entryX=0.008;entryY=0.344;entryDx=0;entryDy=0;entryPerimeter=0;" edge="1" parent="1" source="pZPTQWNnfUyGxPel9Bpb-11" target="pZPTQWNnfUyGxPel9Bpb-8">
          <mxGeometry width="50" height="50" relative="1" as="geometry">
            <mxPoint x="910" y="340" as="sourcePoint" />
            <mxPoint x="1170" y="350" as="targetPoint" />
          </mxGeometry>
        </mxCell>
        <mxCell id="pZPTQWNnfUyGxPel9Bpb-46" value="Raw Data" style="text;html=1;align=center;verticalAlign=middle;whiteSpace=wrap;rounded=0;" vertex="1" parent="1">
          <mxGeometry x="380" y="312.12" width="130" height="30" as="geometry" />
        </mxCell>
        <mxCell id="pZPTQWNnfUyGxPel9Bpb-47" value="Clean, Standardized Data" style="text;html=1;align=center;verticalAlign=middle;whiteSpace=wrap;rounded=0;" vertex="1" parent="1">
          <mxGeometry x="607.5" y="320" width="130" height="30" as="geometry" />
        </mxCell>
        <mxCell id="pZPTQWNnfUyGxPel9Bpb-48" value="Business-Ready Data" style="text;html=1;align=center;verticalAlign=middle;whiteSpace=wrap;rounded=0;" vertex="1" parent="1">
          <mxGeometry x="790" y="320" width="130" height="30" as="geometry" />
        </mxCell>
        <mxCell id="pZPTQWNnfUyGxPel9Bpb-49" value="" style="endArrow=none;html=1;rounded=0;" edge="1" parent="1">
          <mxGeometry width="50" height="50" relative="1" as="geometry">
            <mxPoint x="380" y="409.5" as="sourcePoint" />
            <mxPoint x="510" y="409.5" as="targetPoint" />
          </mxGeometry>
        </mxCell>
        <mxCell id="pZPTQWNnfUyGxPel9Bpb-50" value="" style="endArrow=none;html=1;rounded=0;" edge="1" parent="1">
          <mxGeometry width="50" height="50" relative="1" as="geometry">
            <mxPoint x="595" y="409.5" as="sourcePoint" />
            <mxPoint x="725" y="409.5" as="targetPoint" />
            <Array as="points">
              <mxPoint x="667.5" y="409.5" />
            </Array>
          </mxGeometry>
        </mxCell>
        <mxCell id="pZPTQWNnfUyGxPel9Bpb-51" value="" style="endArrow=none;html=1;rounded=0;" edge="1" parent="1">
          <mxGeometry width="50" height="50" relative="1" as="geometry">
            <mxPoint x="785" y="409.5" as="sourcePoint" />
            <mxPoint x="915" y="409.5" as="targetPoint" />
          </mxGeometry>
        </mxCell>
        <mxCell id="pZPTQWNnfUyGxPel9Bpb-54" value="&lt;b&gt;Object Type&lt;/b&gt;: Table&amp;nbsp;&lt;div&gt;&lt;br&gt;&lt;/div&gt;&lt;div style=&quot;text-align: left;&quot;&gt;&lt;b&gt;Load&lt;/b&gt;:&lt;/div&gt;&lt;div&gt;&lt;ul&gt;&lt;li style=&quot;text-align: left;&quot;&gt;Batch Processing&lt;/li&gt;&lt;li style=&quot;text-align: left;&quot;&gt;Full Load&lt;/li&gt;&lt;li&gt;&lt;span style=&quot;background-color: transparent; color: light-dark(rgb(0, 0, 0), rgb(255, 255, 255));&quot;&gt;Truncate &amp;amp; Insert&amp;nbsp;&lt;/span&gt;&lt;/li&gt;&lt;/ul&gt;&lt;div style=&quot;text-align: left;&quot;&gt;No &lt;b&gt;Transformations&amp;nbsp;&lt;/b&gt;&lt;/div&gt;&lt;div style=&quot;text-align: left;&quot;&gt;&lt;br&gt;&lt;/div&gt;&lt;div style=&quot;text-align: left;&quot;&gt;&lt;b&gt;Data Model&lt;/b&gt;: None (as-is)&lt;/div&gt;&lt;/div&gt;" style="text;html=1;align=center;verticalAlign=middle;whiteSpace=wrap;rounded=0;" vertex="1" parent="1">
          <mxGeometry x="380" y="420" width="140" height="170" as="geometry" />
        </mxCell>
        <mxCell id="pZPTQWNnfUyGxPel9Bpb-55" value="&lt;div style=&quot;text-align: left;&quot;&gt;&lt;b&gt;&amp;nbsp; Object Type&lt;/b&gt;: Tables&amp;nbsp;&lt;/div&gt;&lt;div style=&quot;text-align: left;&quot;&gt;&lt;br&gt;&lt;/div&gt;&lt;div style=&quot;text-align: left;&quot;&gt;&amp;nbsp; &lt;b&gt;Load&lt;/b&gt;:&amp;nbsp;&lt;/div&gt;&lt;div style=&quot;&quot;&gt;&lt;ul&gt;&lt;li style=&quot;text-align: left;&quot;&gt;Batch Processing&lt;/li&gt;&lt;li style=&quot;text-align: left;&quot;&gt;Full Load&amp;nbsp;&lt;/li&gt;&lt;li style=&quot;text-align: left;&quot;&gt;Truncate &amp;amp; Insert&amp;nbsp;&lt;/li&gt;&lt;/ul&gt;&lt;div style=&quot;text-align: left;&quot;&gt;&amp;nbsp; &lt;b&gt;Transformations&lt;/b&gt;:&amp;nbsp;&lt;/div&gt;&lt;div style=&quot;&quot;&gt;&lt;ul&gt;&lt;li style=&quot;text-align: left;&quot;&gt;&lt;font style=&quot;font-size: 10px;&quot;&gt;Data Cleansing&amp;nbsp;&lt;/font&gt;&lt;/li&gt;&lt;li style=&quot;text-align: left;&quot;&gt;&lt;font style=&quot;font-size: 10px;&quot;&gt;Data Standardization&lt;/font&gt;&lt;/li&gt;&lt;li style=&quot;text-align: left;&quot;&gt;&lt;font style=&quot;font-size: 11px;&quot;&gt;Data Normalization&amp;nbsp;&lt;/font&gt;&lt;/li&gt;&lt;li style=&quot;text-align: left;&quot;&gt;&lt;font style=&quot;font-size: 11px;&quot;&gt;Derived Columns&amp;nbsp;&lt;/font&gt;&lt;/li&gt;&lt;li style=&quot;text-align: left;&quot;&gt;&lt;font style=&quot;font-size: 11px;&quot;&gt;Data Enrichment&lt;/font&gt;&lt;/li&gt;&lt;/ul&gt;&lt;font&gt;&lt;span style=&quot;text-align: left; background-color: transparent; color: light-dark(rgb(0, 0, 0), rgb(255, 255, 255));&quot;&gt;&lt;b&gt;Data Model&lt;/b&gt;: None (as-is)&lt;/span&gt;&lt;span style=&quot;text-align: left; background-color: transparent; color: light-dark(rgb(0, 0, 0), rgb(255, 255, 255));&quot;&gt;&amp;nbsp;&lt;/span&gt;&lt;/font&gt;&lt;/div&gt;&lt;/div&gt;" style="text;html=1;align=center;verticalAlign=middle;whiteSpace=wrap;rounded=0;" vertex="1" parent="1">
          <mxGeometry x="590" y="420" width="140" height="240" as="geometry" />
        </mxCell>
        <mxCell id="pZPTQWNnfUyGxPel9Bpb-58" value="&lt;div style=&quot;text-align: left;&quot;&gt;&amp;nbsp; &lt;b&gt;Object Type&lt;/b&gt;: Views&amp;nbsp;&lt;/div&gt;&lt;div style=&quot;text-align: left;&quot;&gt;&lt;br&gt;&lt;/div&gt;&lt;div style=&quot;text-align: left;&quot;&gt;&amp;nbsp; No &lt;b&gt;Load&amp;nbsp;&lt;/b&gt;&lt;/div&gt;&lt;div style=&quot;text-align: left;&quot;&gt;&lt;span style=&quot;background-color: transparent; color: light-dark(rgb(0, 0, 0), rgb(255, 255, 255));&quot;&gt;&amp;nbsp;&lt;/span&gt;&lt;/div&gt;&lt;div style=&quot;&quot;&gt;&lt;div style=&quot;text-align: left;&quot;&gt;&amp;nbsp; &lt;b&gt;Transformations&lt;/b&gt;:&amp;nbsp;&lt;/div&gt;&lt;div style=&quot;&quot;&gt;&lt;ul&gt;&lt;li style=&quot;text-align: left;&quot;&gt;&lt;font style=&quot;font-size: 10px;&quot;&gt;Data Integrations&amp;nbsp;&lt;/font&gt;&lt;/li&gt;&lt;li style=&quot;text-align: left;&quot;&gt;&lt;font style=&quot;font-size: 10px;&quot;&gt;Aggregations&lt;/font&gt;&lt;/li&gt;&lt;li style=&quot;text-align: left;&quot;&gt;&lt;font style=&quot;font-size: 11px;&quot;&gt;Business Logics&amp;nbsp;&lt;/font&gt;&lt;/li&gt;&lt;/ul&gt;&lt;font&gt;&lt;div style=&quot;text-align: left;&quot;&gt;&lt;span style=&quot;background-color: transparent; color: light-dark(rgb(0, 0, 0), rgb(255, 255, 255));&quot;&gt;&lt;b&gt;Data Model&lt;/b&gt;:&amp;nbsp;&lt;/span&gt;&lt;/div&gt;&lt;div style=&quot;&quot;&gt;&lt;ul&gt;&lt;li style=&quot;text-align: left;&quot;&gt;Star Schema&lt;/li&gt;&lt;li style=&quot;text-align: left;&quot;&gt;Flat Table&lt;/li&gt;&lt;li style=&quot;text-align: left;&quot;&gt;Aggregated Table&lt;/li&gt;&lt;/ul&gt;&lt;/div&gt;&lt;/font&gt;&lt;/div&gt;&lt;div style=&quot;&quot;&gt;&lt;font&gt;&lt;span style=&quot;text-align: left; background-color: transparent; color: light-dark(rgb(0, 0, 0), rgb(255, 255, 255));&quot;&gt;&amp;nbsp;&lt;/span&gt;&lt;/font&gt;&lt;/div&gt;&lt;/div&gt;" style="text;html=1;align=center;verticalAlign=middle;whiteSpace=wrap;rounded=0;" vertex="1" parent="1">
          <mxGeometry x="780" y="420" width="140" height="240" as="geometry" />
        </mxCell>
        <mxCell id="pZPTQWNnfUyGxPel9Bpb-59" value="" style="image;aspect=fixed;html=1;points=[];align=center;fontSize=12;image=img/lib/azure2/analytics/Power_BI_Embedded.svg;" vertex="1" parent="1">
          <mxGeometry x="1190" y="253.94" width="60" height="80" as="geometry" />
        </mxCell>
        <mxCell id="pZPTQWNnfUyGxPel9Bpb-60" value="BI &amp;amp; Reporting" style="text;html=1;align=center;verticalAlign=middle;whiteSpace=wrap;rounded=0;" vertex="1" parent="1">
          <mxGeometry x="1160" y="342.12" width="120" height="30" as="geometry" />
        </mxCell>
        <mxCell id="pZPTQWNnfUyGxPel9Bpb-62" value="" style="points=[];aspect=fixed;html=1;align=center;shadow=0;dashed=0;fillColor=#FF6A00;strokeColor=none;shape=mxgraph.alibaba_cloud.machine_learning;" vertex="1" parent="1">
          <mxGeometry x="1200.2" y="460" width="49.8" height="50.099999999999994" as="geometry" />
        </mxCell>
        <mxCell id="pZPTQWNnfUyGxPel9Bpb-63" value="Machine Learning" style="text;html=1;align=center;verticalAlign=middle;whiteSpace=wrap;rounded=0;" vertex="1" parent="1">
          <mxGeometry x="1155" y="525" width="120" height="30" as="geometry" />
        </mxCell>
        <mxCell id="pZPTQWNnfUyGxPel9Bpb-64" value="" style="sketch=0;pointerEvents=1;shadow=0;dashed=0;html=1;strokeColor=none;fillColor=#005F4B;labelPosition=center;verticalLabelPosition=bottom;verticalAlign=top;align=center;outlineConnect=0;shape=mxgraph.veeam2.sql_server;" vertex="1" parent="1">
          <mxGeometry x="380" y="84" width="40" height="52" as="geometry" />
        </mxCell>
      </root>
    </mxGraphModel>
  </diagram>
</mxfile>
